<svg width="1024" height="1024" viewBox="0 0 1024 1024" fill="none" xmlns="http://www.w3.org/2000/svg">
<circle cx="512" cy="512" r="512" fill="#319795"/>
<g filter="url(#filter0_d_4_7)">
<path d="M247.765 314.292C264.633 276.408 302.218 252 343.687 252H692.67C736.963 252 776.493 279.795 791.478 321.476L842 462H182L247.765 314.292Z" fill="white"/>
<path d="M130 517C130 486.624 154.624 462 185 462H839C869.376 462 894 486.624 894 517V588H130V517Z" fill="white"/>
<path d="M136.708 590.854L130 587.5H894L887.292 590.854C882.21 593.395 879 598.589 879 604.271V681C879.667 691.833 879.1 717.5 871.5 733.5C862 753.5 860 755 818.5 769C740.5 782 732.5 731 732.5 728.5C731.5 719.333 730 710.5 733.5 681C732.834 679.449 543.5 692.5 512 690.5C480.5 692.5 291.166 679.449 290.5 681C294 710.5 292.5 719.333 291.5 728.5C291.5 731 283.5 782 205.5 769C164 755 162 753.5 152.5 733.5C144.9 717.5 144.333 691.833 145 681V604.271C145 598.589 141.79 593.395 136.708 590.854Z" fill="white"/>
<path d="M247.765 314.292C264.633 276.408 302.218 252 343.687 252H692.67C736.963 252 776.493 279.795 791.478 321.476L842 462H182L247.765 314.292Z" stroke="white"/>
<path d="M130 517C130 486.624 154.624 462 185 462H839C869.376 462 894 486.624 894 517V588H130V517Z" stroke="white"/>
<path d="M136.708 590.854L130 587.5H894L887.292 590.854C882.21 593.395 879 598.589 879 604.271V681C879.667 691.833 879.1 717.5 871.5 733.5C862 753.5 860 755 818.5 769C740.5 782 732.5 731 732.5 728.5C731.5 719.333 730 710.5 733.5 681C732.834 679.449 543.5 692.5 512 690.5C480.5 692.5 291.166 679.449 290.5 681C294 710.5 292.5 719.333 291.5 728.5C291.5 731 283.5 782 205.5 769C164 755 162 753.5 152.5 733.5C144.9 717.5 144.333 691.833 145 681V604.271C145 598.589 141.79 593.395 136.708 590.854Z" stroke="white"/>
</g>
<g filter="url(#filter1_i_4_7)">
<path d="M296.586 361.737C307.712 334.102 334.514 316 364.304 316H512V558L325.712 550.934C275.21 549.018 241.887 497.604 260.761 450.723L296.586 361.737Z" fill="#319795"/>
<path d="M296.586 361.737C307.712 334.102 334.514 316 364.304 316H512V558L325.712 550.934C275.21 549.018 241.887 497.604 260.761 450.723L296.586 361.737Z" fill="#319795"/>
<path d="M727.414 361.737C716.288 334.102 689.486 316 659.696 316H512V558L698.288 550.934C748.79 549.018 782.113 497.604 763.239 450.723L727.414 361.737Z" fill="#319795"/>
<path d="M727.414 361.737C716.288 334.102 689.486 316 659.696 316H512V558L698.288 550.934C748.79 549.018 782.113 497.604 763.239 450.723L727.414 361.737Z" fill="#319795"/>
</g>
<circle cx="381.5" cy="432.5" r="79.5" fill="white"/>
<circle cx="642.5" cy="432.5" r="79.5" fill="white"/>
<defs>
<filter id="filter0_d_4_7" x="119.5" y="241.5" width="815" height="570.117" filterUnits="userSpaceOnUse" color-interpolation-filters="sRGB">
<feFlood flood-opacity="0" result="BackgroundImageFix"/>
<feColorMatrix in="SourceAlpha" type="matrix" values="0 0 0 0 0 0 0 0 0 0 0 0 0 0 0 0 0 0 127 0" result="hardAlpha"/>
<feOffset dx="15" dy="15"/>
<feGaussianBlur stdDeviation="12.5"/>
<feComposite in2="hardAlpha" operator="out"/>
<feColorMatrix type="matrix" values="0 0 0 0 0 0 0 0 0 0 0 0 0 0 0 0 0 0 0.25 0"/>
<feBlend mode="normal" in2="BackgroundImageFix" result="effect1_dropShadow_4_7"/>
<feBlend mode="normal" in="SourceGraphic" in2="effect1_dropShadow_4_7" result="shape"/>
</filter>
<filter id="filter1_i_4_7" x="255.414" y="316" width="513.172" height="242" filterUnits="userSpaceOnUse" color-interpolation-filters="sRGB">
<feFlood flood-opacity="0" result="BackgroundImageFix"/>
<feBlend mode="normal" in="SourceGraphic" in2="BackgroundImageFix" result="shape"/>
<feColorMatrix in="SourceAlpha" type="matrix" values="0 0 0 0 0 0 0 0 0 0 0 0 0 0 0 0 0 0 127 0" result="hardAlpha"/>
<feOffset/>
<feGaussianBlur stdDeviation="5.5"/>
<feComposite in2="hardAlpha" operator="arithmetic" k2="-1" k3="1"/>
<feColorMatrix type="matrix" values="0 0 0 0 0 0 0 0 0 0 0 0 0 0 0 0 0 0 0.25 0"/>
<feBlend mode="normal" in2="shape" result="effect1_innerShadow_4_7"/>
</filter>
</defs>
</svg>
