<svg width="24" height="25" viewBox="0 0 24 25" fill="none" xmlns="http://www.w3.org/2000/svg">
<path d="M12.1359 2.74993C6.65251 2.67587 2.17594 7.15243 2.25001 12.6359C2.32313 17.8948 6.60516 22.1768 11.8641 22.2499C17.3484 22.3249 21.8241 17.8484 21.7491 12.3649C21.6769 7.10509 17.3948 2.82305 12.1359 2.74993ZM18.0619 18.0898C18.0432 18.11 18.0203 18.1258 17.9948 18.1362C17.9694 18.1465 17.9419 18.1511 17.9145 18.1497C17.887 18.1483 17.8602 18.1408 17.8359 18.1279C17.8117 18.1149 17.7905 18.0968 17.7741 18.0748C17.3548 17.5262 16.8413 17.0566 16.2577 16.6877C15.0642 15.9218 13.552 15.4999 12 15.4999C10.448 15.4999 8.93579 15.9218 7.74235 16.6877C7.1587 17.0564 6.64524 17.5259 6.22594 18.0743C6.20947 18.0963 6.18835 18.1145 6.16409 18.1274C6.13983 18.1404 6.11302 18.1478 6.08555 18.1493C6.05809 18.1507 6.03064 18.1461 6.00517 18.1357C5.97969 18.1253 5.9568 18.1095 5.93813 18.0893C4.56267 16.6045 3.78352 14.6643 3.75001 12.6406C3.6736 8.07915 7.41657 4.26118 11.9798 4.24993C16.5431 4.23868 20.25 7.94415 20.25 12.4999C20.2516 14.5725 19.47 16.5691 18.0619 18.0898Z" fill="white"/>
<path d="M12 7.25C11.0756 7.25 10.2399 7.59641 9.64594 8.22594C9.05204 8.85547 8.75532 9.72594 8.82235 10.6602C8.95829 12.5 10.3838 14 12 14C13.6163 14 15.0389 12.5 15.1777 10.6606C15.247 9.73531 14.9527 8.87281 14.3489 8.23156C13.7527 7.59875 12.9183 7.25 12 7.25Z" fill="white"/>
</svg>
