<svg width="24" height="25" viewBox="0 0 24 25" fill="none"
    xmlns="http://www.w3.org/2000/svg">
    <path d="M20.985 10.8491C20.9743 10.7995 20.9586 10.7511 20.9381 10.7047L19.1672 6.57219C18.7589 5.61734 17.7656 5 16.6355 5H7.36453C6.23531 5 5.24109 5.61734 4.83328 6.57219L3.06047 10.7047C3.02018 10.7979 2.99959 10.8984 3 11V19.25C3 19.4489 3.07902 19.6397 3.21967 19.7803C3.36032 19.921 3.55109 20 3.75 20H5.25C5.44891 20 5.63968 19.921 5.78033 19.7803C5.92098 19.6397 6 19.4489 6 19.25V18.5H18V19.25C18 19.4489 18.079 19.6397 18.2197 19.7803C18.3603 19.921 18.5511 20 18.75 20H20.25C20.4489 20 20.6397 19.921 20.7803 19.7803C20.921 19.6397 21 19.4489 21 19.25V11C21.0001 10.9493 20.995 10.8987 20.985 10.8491ZM6.75 15.5C6.45333 15.5 6.16332 15.412 5.91664 15.2472C5.66997 15.0824 5.47771 14.8481 5.36418 14.574C5.25065 14.2999 5.22094 13.9983 5.27882 13.7074C5.3367 13.4164 5.47956 13.1491 5.68934 12.9393C5.89912 12.7296 6.16639 12.5867 6.45736 12.5288C6.74833 12.4709 7.04993 12.5006 7.32402 12.6142C7.59811 12.7277 7.83238 12.92 7.9972 13.1666C8.16202 13.4133 8.25 13.7033 8.25 14C8.25 14.3978 8.09196 14.7794 7.81066 15.0607C7.52935 15.342 7.14782 15.5 6.75 15.5ZM17.25 15.5C16.9533 15.5 16.6633 15.412 16.4166 15.2472C16.17 15.0824 15.9777 14.8481 15.8642 14.574C15.7506 14.2999 15.7209 13.9983 15.7788 13.7074C15.8367 13.4164 15.9796 13.1491 16.1893 12.9393C16.3991 12.7296 16.6664 12.5867 16.9574 12.5288C17.2483 12.4709 17.5499 12.5006 17.824 12.6142C18.0981 12.7277 18.3324 12.92 18.4972 13.1666C18.662 13.4133 18.75 13.7033 18.75 14C18.75 14.3978 18.592 14.7794 18.3107 15.0607C18.0294 15.342 17.6478 15.5 17.25 15.5ZM4.88719 10.25L6.21047 7.16328C6.38015 6.76672 6.84375 6.5 7.36453 6.5H16.6355C17.1558 6.5 17.6198 6.76672 17.7895 7.16328L19.1128 10.25H4.88719Z" fill="white"/>
</svg>
